<?xml version="1.0" standalone="no"?>
<!DOCTYPE svg PUBLIC "-//W3C//DTD SVG 20010904//EN"
 "http://www.w3.org/TR/2001/REC-SVG-20010904/DTD/svg10.dtd">
<svg version="1.0" xmlns="http://www.w3.org/2000/svg"
 width="800.000000pt" height="817.000000pt" viewBox="0 0 800.000000 817.000000"
 preserveAspectRatio="xMidYMid meet">

<g transform="translate(0.000000,817.000000) scale(0.100000,-0.100000)"
fill="#000000" stroke="none">
<path d="M1915 7490 c-97 -20 -235 -90 -309 -159 -53 -49 -147 -190 -146 -218
1 -4 10 10 22 32 73 139 188 239 348 301 72 28 81 29 230 28 154 -2 155 -2
240 -37 58 -25 78 -30 62 -17 -28 23 -119 58 -186 71 -58 11 -204 10 -261 -1z"/>
<path d="M3529 7448 c-50 -9 -106 -50 -133 -99 -19 -33 -18 -33 17 7 20 23 53
50 74 59 36 18 125 19 1828 21 1190 2 1808 -1 1845 -8 34 -6 69 -21 92 -39 21
-17 38 -28 38 -25 0 11 -47 49 -85 69 l-40 20 -1797 1 c-988 1 -1815 -2 -1839
-6z"/>
<path d="M2420 7372 c19 -15 55 -45 79 -67 27 -24 38 -30 26 -15 -21 30 -118
110 -131 110 -5 -1 7 -13 26 -28z"/>
<path d="M3358 7136 c-10 -97 -11 -1403 -2 -1510 4 -42 10 -75 14 -74 4 2 49
52 100 112 102 118 176 174 266 203 37 11 54 22 58 37 3 12 5 224 3 471 l-2
450 -2 -391 -3 -392 -30 -6 c-97 -19 -197 -94 -310 -235 -36 -44 -69 -80 -75
-81 -7 0 -9 164 -7 477 3 656 -1 1041 -10 939z"/>
<path d="M3799 6993 c0 -5 -1 -41 -1 -82 l0 -74 1549 -1 1548 -1 3 -1280 c1
-704 0 -1289 -2 -1300 -5 -20 -13 -20 -1541 -19 -890 1 -1540 5 -1546 11 -4 4
-10 87 -12 183 l-3 175 -2 -192 -2 -193 1560 0 1561 0 -3 1388 -3 1387 -1552
3 c-854 1 -1553 -1 -1554 -5z"/>
<path d="M1404 6710 c3 -147 6 -173 29 -235 62 -174 165 -296 315 -374 l54
-27 -44 -13 c-75 -22 -150 -72 -233 -156 -45 -44 -108 -104 -140 -133 -33 -30
-94 -86 -135 -125 -42 -40 -123 -115 -180 -167 -250 -226 -360 -335 -359 -353
0 -9 2 -9 6 0 4 11 297 288 443 419 90 81 218 201 341 318 113 110 168 147
268 181 34 12 96 15 285 15 230 0 244 -2 310 -25 67 -23 126 -59 192 -114 16
-14 7 -4 -20 22 -56 53 -138 101 -200 118 l-40 11 69 36 c198 105 337 350 334
589 l-1 78 -14 -70 c-42 -212 -225 -417 -435 -486 -63 -20 -93 -24 -204 -24
-116 0 -138 3 -202 27 -198 73 -363 244 -413 428 -7 25 -16 86 -20 135 -7 75
-8 63 -6 -75z"/>
<path d="M5309 6256 c-6 -7 -137 -54 -429 -156 -107 -37 -208 -73 -225 -80
-16 -7 -119 -43 -228 -81 -108 -37 -235 -82 -281 -100 l-84 -32 -29 21 c-52
37 -105 47 -183 33 -110 -20 -86 3 -476 -457 l-86 -100 -31 29 c-18 16 -52 46
-77 66 -65 51 -202 171 -222 194 -10 10 -18 14 -18 7 0 -6 14 -23 32 -38 18
-15 97 -83 176 -151 l145 -123 26 33 c14 19 80 96 146 173 66 77 145 169 175
205 128 151 232 184 380 120 l52 -23 92 32 c50 17 213 74 361 127 149 53 313
111 365 130 52 18 174 61 270 95 145 51 182 60 215 55 30 -4 37 -3 29 5 -13
13 -86 25 -95 16z"/>
<path d="M5405 6091 c-11 -11 -153 -97 -315 -192 -162 -94 -425 -248 -585
-342 -159 -94 -337 -198 -394 -231 l-105 -61 -254 -297 c-228 -267 -261 -301
-311 -325 -44 -22 -70 -28 -121 -28 -88 0 -148 31 -273 143 l-99 87 1 342 c1
234 -2 344 -9 348 -8 5 -10 -117 -8 -418 l3 -425 30 -27 c208 -184 259 -215
353 -215 117 0 167 37 357 265 28 33 93 110 145 171 52 61 117 137 143 168 29
34 69 67 100 83 29 14 63 33 77 43 14 9 45 28 70 42 41 23 406 236 680 398 63
37 194 114 290 170 228 133 240 141 245 165 7 34 11 155 5 155 -3 0 -14 -9
-25 -19z"/>
<path d="M1810 5367 c-41 -40 -158 -146 -260 -236 -102 -90 -191 -170 -199
-177 -12 -11 -2 -26 69 -96 45 -46 78 -74 72 -63 -5 11 -20 29 -31 39 -12 11
-21 24 -21 30 0 6 25 31 55 56 31 25 79 77 107 115 29 39 90 122 137 185 46
63 96 130 110 149 47 60 54 71 45 71 -5 0 -43 -33 -84 -73z"/>
<path d="M1580 4908 l1 -73 179 -200 c192 -213 243 -291 259 -391 l8 -49 7 55
c10 73 -14 192 -54 274 -29 58 -74 115 -194 246 -22 25 -74 82 -115 128 -40
45 -77 82 -82 82 -5 0 -9 -33 -9 -72z"/>
<path d="M670 4827 c0 -121 17 -152 214 -370 88 -99 181 -203 205 -231 218
-253 285 -319 355 -345 69 -26 112 -26 184 -4 120 38 192 152 191 301 l0 77
-20 -52 c-41 -107 -139 -173 -256 -173 -125 0 -149 19 -409 310 -71 80 -145
163 -165 185 -125 138 -244 273 -257 293 -8 12 -20 39 -28 60 -13 36 -13 35
-14 -51z"/>
<path d="M1566 4700 c18 -19 46 -51 64 -70 29 -31 31 -32 12 -5 -11 17 -40 48
-64 70 -39 36 -40 37 -12 5z"/>
<path d="M3719 4623 c-35 -42 -90 -93 -123 -114 -64 -42 -153 -79 -190 -79
-13 0 -29 -7 -37 -16 -11 -13 -9 -14 17 -9 120 28 161 46 241 107 49 38 170
175 161 183 -2 3 -33 -30 -69 -72z"/>
<path d="M1699 4553 c18 -24 35 -43 37 -43 10 0 -16 36 -42 60 -26 23 -25 22
5 -17z"/>
<path d="M3358 4280 c-17 -192 -3 -482 26 -538 9 -17 31 -45 48 -62 67 -62 55
-61 687 -58 l574 3 14 60 c7 33 15 69 18 80 4 20 -1 20 -598 20 -569 0 -604 1
-637 19 -46 24 -78 54 -98 91 -14 24 -18 71 -22 250 -4 188 -6 208 -12 135z"/>
<path d="M1919 4015 c-54 -69 -130 -120 -223 -153 -93 -32 -165 -37 -246 -18
-59 14 -82 14 -68 1 3 -3 38 -12 79 -21 126 -26 274 11 377 94 64 51 90 79
115 122 27 45 15 36 -34 -25z"/>
<path d="M7304 3895 c-25 -49 -88 -95 -145 -106 -24 -4 -297 -8 -606 -9 -444
0 -563 -3 -563 -12 0 -12 8 -52 25 -125 l5 -23 571 0 c616 0 601 -1 667 55 55
46 73 94 70 183 l-3 77 -21 -40z"/>
<path d="M1372 2419 c-1 -906 2 -1405 8 -1440 22 -115 89 -202 197 -255 116
-57 261 -32 357 62 85 83 117 170 115 319 l-1 90 -13 -67 c-31 -156 -169 -268
-331 -268 -119 0 -232 73 -290 187 l-29 58 -5 1350 -5 1350 -3 -1386z"/>
<path d="M5176 3758 c-29 -139 -145 -668 -411 -1873 -47 -214 -108 -493 -136
-620 -28 -126 -55 -243 -62 -260 -44 -118 -190 -180 -297 -125 -58 29 -106 84
-121 138 l-14 47 -3 -79 c-6 -165 76 -279 212 -293 43 -4 60 0 105 24 102 54
116 85 187 418 41 192 49 228 104 475 72 326 79 359 90 410 5 25 16 77 25 115
9 39 22 99 30 135 7 36 32 148 55 250 23 102 45 203 50 225 4 22 27 126 50
230 23 105 51 231 61 280 10 50 26 119 34 155 9 36 20 83 25 105 5 22 12 55
15 73 l7 32 174 0 c96 0 174 -3 174 -6 0 -4 21 -99 46 -213 26 -113 52 -233
59 -266 34 -159 46 -215 59 -275 8 -36 49 -222 92 -415 42 -192 80 -366 84
-385 5 -19 22 -100 39 -180 17 -80 38 -172 45 -205 8 -33 25 -112 39 -175 150
-686 153 -698 211 -747 81 -69 174 -80 253 -30 86 54 122 129 122 252 l0 80
-15 -39 c-34 -94 -119 -156 -214 -156 -78 0 -159 50 -195 121 -8 14 -35 120
-60 235 -93 422 -126 571 -145 654 -11 47 -40 180 -65 295 -25 116 -61 280
-80 365 -74 338 -226 1029 -241 1100 -9 41 -21 92 -26 113 l-9 37 -174 0
c-173 0 -175 0 -179 -22z"/>
<path d="M4645 3449 c-4 -6 -5 -12 -2 -15 2 -3 7 2 10 11 7 17 1 20 -8 4z"/>
<path d="M2148 3162 l-108 -3 0 -79 0 -80 105 0 105 0 -2 -964 c-2 -531 0
-956 5 -944 4 11 6 482 5 1046 l-3 1027 -107 -3z"/>
<path d="M4321 1964 c0 -11 3 -14 6 -6 3 7 2 16 -1 19 -3 4 -6 -2 -5 -13z"/>
<path d="M2721 1234 c0 -11 3 -14 6 -6 3 7 2 16 -1 19 -3 4 -6 -2 -5 -13z"/>
<path d="M2720 1155 c-11 -115 -78 -208 -194 -265 -84 -42 -175 -42 -264 0
-35 17 -66 30 -68 30 -2 0 -4 -35 -4 -79 l0 -78 59 -32 c80 -42 157 -50 233
-23 175 62 252 187 246 403 -3 90 -4 96 -8 44z"/>
<path d="M2206 995 c-9 -26 -7 -32 5 -12 6 10 9 21 6 23 -2 3 -7 -2 -11 -11z"/>
</g>
</svg>
